<svg width="24" height="24" viewBox="0 0 24 24" fill="none" xmlns="http://www.w3.org/2000/svg">
<path d="M12 7.11111V16.8889M7.11111 12H16.8889M6.86667 23H17.1333C19.1869 23 20.2136 23 20.998 22.6004C21.6879 22.2488 22.2488 21.6879 22.6004 20.998C23 20.2136 23 19.1869 23 17.1333V6.86667C23 4.81314 23 3.78638 22.6004 3.00203C22.2488 2.31211 21.6879 1.75118 20.998 1.39964C20.2136 1 19.1869 1 17.1333 1H6.86667C4.81314 1 3.78638 1 3.00203 1.39964C2.31211 1.75118 1.75118 2.31211 1.39964 3.00203C1 3.78638 1 4.81314 1 6.86667V17.1333C1 19.1869 1 20.2136 1.39964 20.998C1.75118 21.6879 2.31211 22.2488 3.00203 22.6004C3.78638 23 4.81314 23 6.86667 23Z" stroke="#44B664" stroke-width="2" stroke-linecap="round" stroke-linejoin="round"/>
</svg>
