<svg width="48" height="64" viewBox="0 0 48 64" fill="none" xmlns="http://www.w3.org/2000/svg">
<path d="M43.8458 11.9576C39.7004 5.94012 32.7891 2 24.9627 2C12.2804 2 2 12.3465 2 25.1105C2 30.4895 3.82662 35.4395 6.88889 39.3674C7.02233 39.5384 7.15751 39.7058 7.29442 39.8733C8.154 41.0035 10.251 44.0767 12.3306 49.5413C12.4433 49.8709 12.5646 50.1971 12.6946 50.518C12.6946 50.518 12.6946 50.5198 12.6946 50.5215C12.8297 50.8948 12.9718 51.2192 13.1226 51.4983C16.0601 57.7076 22.351 62 29.6402 62C36.9293 62 43.0001 57.8558 46 51.8227" stroke="#44B664" stroke-width="4" stroke-miterlimit="10" stroke-linecap="round" stroke-linejoin="round"/>
<path d="M38.7569 24.6977C38.7569 17.2224 32.5992 11.1628 25.0029 11.1628C17.4065 11.1628 11.2489 17.2224 11.2489 24.6977" stroke="#44B664" stroke-width="4" stroke-miterlimit="10" stroke-linecap="round" stroke-linejoin="round"/>
<path d="M38.7362 32.88C37.2918 31.2744 35.1838 30.2642 32.8338 30.2642C28.4817 30.2642 24.9539 33.7358 24.9539 38.0186C24.9539 42.3014 28.4817 45.773 32.8338 45.773C35.1914 45.773 37.3088 44.7535 38.7532 43.1367" stroke="#44B664" stroke-width="4" stroke-miterlimit="10" stroke-linecap="round" stroke-linejoin="round"/>
<path d="M38.755 24.6511L38.7361 32.88" stroke="#44B664" stroke-width="4" stroke-miterlimit="10" stroke-linecap="round" stroke-linejoin="round"/>
</svg>
