<svg width="48" height="48" viewBox="0 0 48 48" fill="none" xmlns="http://www.w3.org/2000/svg">
<circle cx="24" cy="24" r="23.5" fill="white" stroke="#DEDEDE"/>
<path d="M25.8699 18.5714C26.7459 18.7416 27.551 19.1681 28.1821 19.7964C28.8132 20.4246 29.2416 21.2261 29.4126 22.0982M25.8699 15C27.6899 15.2013 29.3871 16.0127 30.6827 17.3009C31.9784 18.5891 32.7955 20.2777 33 22.0893M22.4412 25.592C21.3636 24.5192 20.5126 23.3061 19.8884 22.0118C19.8347 21.9005 19.8079 21.8448 19.7873 21.7744C19.714 21.5241 19.7666 21.2167 19.9191 21.0047C19.962 20.945 20.0133 20.894 20.1158 20.7919C20.4293 20.4798 20.5861 20.3237 20.6886 20.1668C21.0751 19.5749 21.0751 18.8119 20.6886 18.22C20.5861 18.0631 20.4293 17.907 20.1158 17.5949L19.941 17.4209C19.4644 16.9464 19.2261 16.7091 18.9701 16.5802C18.4611 16.3239 17.86 16.3239 17.3509 16.5802C17.095 16.7091 16.8567 16.9464 16.38 17.4209L16.2387 17.5616C15.7637 18.0345 15.5262 18.2709 15.3448 18.5924C15.1435 18.9491 14.9988 19.5031 15 19.9122C15.0011 20.2809 15.073 20.5329 15.2166 21.0369C15.9888 23.7453 17.4457 26.3009 19.5874 28.4331C21.7291 30.5652 24.2963 32.0156 27.0168 32.7843C27.523 32.9274 27.7761 32.9989 28.1465 33C28.5575 33.0012 29.114 32.8571 29.4723 32.6568C29.7952 32.4762 30.0327 32.2397 30.5077 31.7669L30.649 31.6261C31.1257 31.1516 31.364 30.9144 31.4934 30.6596C31.7509 30.1528 31.7509 29.5544 31.4934 29.0476C31.364 28.7928 31.1257 28.5556 30.649 28.0811L30.4743 27.9071C30.1607 27.5949 30.0039 27.4388 29.8463 27.3368C29.2518 26.952 28.4853 26.952 27.8908 27.3368C27.7332 27.4388 27.5764 27.5949 27.2628 27.9071C27.1603 28.0091 27.1091 28.0602 27.0491 28.1029C26.8362 28.2547 26.5274 28.3071 26.276 28.2341C26.2052 28.2136 26.1493 28.1869 26.0375 28.1334C24.7374 27.512 23.5189 26.6648 22.4412 25.592Z" stroke="#F27676" stroke-width="2" stroke-linecap="round" stroke-linejoin="round"/>
</svg>
