<svg width="48" height="48" viewBox="0 0 48 48" fill="none" xmlns="http://www.w3.org/2000/svg">
<circle cx="24" cy="24" r="23.5" fill="white" stroke="#DEDEDE"/>
<path d="M25 19.2C25 18.6477 24.5523 18.2 24 18.2C23.4477 18.2 23 18.6477 23 19.2V23H19.2C18.6477 23 18.2 23.4477 18.2 24C18.2 24.5523 18.6477 25 19.2 25H23V28.8C23 29.3523 23.4477 29.8 24 29.8C24.5523 29.8 25 29.3523 25 28.8V25H28.8C29.3523 25 29.8 24.5523 29.8 24C29.8 23.4477 29.3523 23 28.8 23H25V19.2ZM35 24C35 30.0751 30.0751 35 24 35C17.9249 35 13 30.0751 13 24C13 17.9249 17.9249 13 24 13C30.0751 13 35 17.9249 35 24Z" stroke="#AEAEAE" stroke-width="2" stroke-linecap="round" stroke-linejoin="round"/>
</svg>
