<svg width="48" height="48" viewBox="0 0 48 48" fill="none" xmlns="http://www.w3.org/2000/svg">
<rect x="0.5" y="0.5" width="47" height="47" rx="23.5" fill="white"/>
<rect x="0.5" y="0.5" width="47" height="47" rx="23.5" stroke="#AEAEAE"/>
<path d="M23.315 16.2791C23.5351 15.8374 23.6452 15.6166 23.7945 15.546C23.9245 15.4847 24.0755 15.4847 24.2055 15.546C24.3548 15.6166 24.4649 15.8374 24.685 16.2791L26.7729 20.4693C26.8378 20.5997 26.8703 20.6649 26.9178 20.7155C26.9598 20.7603 27.0102 20.7966 27.0662 20.8224C27.1295 20.8516 27.2021 20.8621 27.3473 20.8831L32.0177 21.5593C32.5095 21.6306 32.7554 21.6662 32.8692 21.7852C32.9682 21.8887 33.0147 22.0309 32.9959 22.1723C32.9742 22.3348 32.7962 22.5066 32.4401 22.8502L29.0619 26.1097C28.9566 26.2113 28.904 26.2621 28.87 26.3225C28.8399 26.3761 28.8206 26.4349 28.8132 26.4957C28.8048 26.5644 28.8172 26.6361 28.842 26.7797L29.6391 31.3836C29.7232 31.8692 29.7653 32.112 29.6863 32.2561C29.6175 32.3814 29.4953 32.4693 29.3538 32.4953C29.191 32.5252 28.9709 32.4106 28.5307 32.1812L24.3555 30.0061C24.2255 29.9384 24.1604 29.9045 24.0919 29.8912C24.0312 29.8794 23.9688 29.8794 23.9081 29.8912C23.8396 29.9045 23.7746 29.9384 23.6445 30.0061L19.4693 32.1812C19.0291 32.4106 18.809 32.5252 18.6462 32.4953C18.5047 32.4693 18.3825 32.3814 18.3137 32.2561C18.2347 32.112 18.2768 31.8692 18.3609 31.3836L19.158 26.7797C19.1828 26.6361 19.1952 26.5644 19.1868 26.4957C19.1794 26.4349 19.1601 26.3761 19.13 26.3225C19.096 26.2621 19.0434 26.2113 18.9381 26.1097L15.5599 22.8502C15.2038 22.5066 15.0258 22.3348 15.0041 22.1723C14.9853 22.0309 15.0318 21.8887 15.1308 21.7852C15.2446 21.6662 15.4905 21.6306 15.9823 21.5593L20.6527 20.8831C20.7979 20.8621 20.8705 20.8516 20.9338 20.8224C20.9898 20.7966 21.0402 20.7603 21.0822 20.7155C21.1297 20.6649 21.1622 20.5997 21.2271 20.4693L23.315 16.2791Z" fill="#DEDEDE" stroke="#DEDEDE" stroke-width="2" stroke-linecap="round" stroke-linejoin="round"/>
</svg>
