<svg width="328" height="56" viewBox="0 0 328 56" fill="none" xmlns="http://www.w3.org/2000/svg">
<rect width="328" height="56" rx="8" fill="#EEEEEE"/>
<path fill-rule="evenodd" clip-rule="evenodd" d="M109.5 38C115.023 38 119.5 33.5228 119.5 28C119.5 27.7112 119.488 27.4253 119.464 27.1428H116.592C116.592 27.1428 116.592 27.1428 116.592 27.1429H109.5V30H116.359C115.494 32.9715 112.751 35.1429 109.5 35.1429C105.555 35.1429 102.357 31.945 102.357 28.0001C102.357 24.0552 105.555 20.8572 109.5 20.8572C111.343 20.8572 113.022 21.5549 114.289 22.7004L116.311 20.6782C114.526 19.0165 112.132 18 109.5 18C103.977 18 99.5 22.4772 99.5 28C99.5 33.5228 103.977 38 109.5 38Z" fill="#363636"/>
<path d="M139.633 22.0469V23.3281C139.633 24.6562 139.633 26.1094 139.273 28.0938H141.148V29.7031H135.602V35.4531H133.602V29.7031H128.18V28.0938H137.258C137.617 26.2578 137.648 24.8672 137.648 23.6406H129.664V22.0469H139.633ZM153.477 21.7969V22.7656C153.477 23.6797 153.477 24.8203 153.211 26.25H155.023V27.8125H142.008V26.25H151.195C151.43 25.0938 151.477 24.1641 151.492 23.375H143.602V21.7969H153.477ZM153.414 28.8125V32.7969H145.477V33.7969H153.805V35.3281H143.492V31.2969H151.445V30.3594H143.477V28.8125H153.414ZM171.508 21.2344V31.625H169.523V28.25H166.273C165.586 28.9766 164.594 29.4219 163.492 29.4219C161.336 29.4219 159.695 27.8594 159.711 25.75C159.695 23.6094 161.336 22.0625 163.492 22.0469C164.594 22.0547 165.578 22.4922 166.273 23.2188H169.523V21.2344H171.508ZM171.852 33.5938V35.1875H162.07V30.5781H164.07V33.5938H171.852ZM163.492 23.8281C162.383 23.8281 161.586 24.5469 161.602 25.75C161.586 26.9375 162.383 27.6562 163.492 27.6562C164.539 27.6562 165.352 26.9375 165.352 25.75C165.352 24.5469 164.539 23.8281 163.492 23.8281ZM167.133 24.8125C167.203 25.1094 167.242 25.4219 167.242 25.75C167.242 26.0625 167.203 26.3672 167.133 26.6562H169.523V24.8125H167.133ZM186.352 27.9375V29.5H173.352V27.9375H178.883V26.7188H174.93V21.8438H184.789V23.3906H176.914V25.1562H184.867V26.7188H180.836V27.9375H186.352ZM179.82 30.2188C182.898 30.2188 184.758 31.1562 184.773 32.8438C184.758 34.5 182.898 35.4531 179.82 35.4531C176.711 35.4531 174.836 34.5 174.836 32.8438C174.836 31.1562 176.711 30.2188 179.82 30.2188ZM179.82 31.7344C177.852 31.7344 176.852 32.1094 176.867 32.8438C176.852 33.5938 177.852 33.9375 179.82 33.9375C181.742 33.9375 182.758 33.5938 182.773 32.8438C182.758 32.1094 181.742 31.7344 179.82 31.7344ZM200.195 32.2188V33.8594H187.18V32.2188H192.664V30.0781H188.68V25.2969H196.727V23.7344H188.664V22.1406H198.695V26.8594H190.68V28.4531H199.023V30.0781H194.648V32.2188H200.195ZM212.383 22.5312V24.2344C212.383 26.1875 212.383 28.125 211.867 31.0625L209.852 30.8906C210.383 28.1562 210.383 26.125 210.398 24.2344V24.125H202.352V22.5312H212.383ZM213.977 31.9375V33.5781H201.008V31.9375H213.977ZM226.742 21.2344V31.4531H224.742V21.2344H226.742ZM227.117 33.5938V35.1875H217.211V30.4219H219.227V33.5938H227.117ZM218.945 22.1406C221.133 22.1406 222.836 23.6406 222.836 25.7188C222.836 27.8438 221.133 29.3281 218.945 29.3281C216.758 29.3281 215.055 27.8438 215.055 25.7188C215.055 23.6406 216.758 22.1406 218.945 22.1406ZM218.945 23.875C217.836 23.8594 216.992 24.5625 217.008 25.7188C216.992 26.9062 217.836 27.5938 218.945 27.5938C220.023 27.5938 220.867 26.9062 220.867 25.7188C220.867 24.5625 220.023 23.8594 218.945 23.875Z" fill="#363636"/>
</svg>
