<svg width="22" height="24" viewBox="0 0 22 24" fill="none" xmlns="http://www.w3.org/2000/svg">
<mask id="path-1-inside-1_300_664" fill="white">
<path fill-rule="evenodd" clip-rule="evenodd" d="M19.8761 16.5998C21.2114 14.8726 22 12.7412 22 10.435C22 4.67192 17.0751 0 11 0C4.92487 0 0 4.67192 0 10.435C0 12.7413 0.788659 14.8728 2.12409 16.6C2.2097 16.7505 2.31799 16.8947 2.45045 17.029L2.68424 17.266C2.86849 17.4677 3.06076 17.6626 3.26058 17.8503L8.15232 22.8094C9.71872 24.3973 12.2813 24.3973 13.8477 22.8094L18.74 17.8498C18.9394 17.6624 19.1313 17.4679 19.3153 17.2666L19.5496 17.029C19.6821 16.8947 19.7904 16.7504 19.8761 16.5998Z"/>
</mask>
<path fill-rule="evenodd" clip-rule="evenodd" d="M19.8761 16.5998C21.2114 14.8726 22 12.7412 22 10.435C22 4.67192 17.0751 0 11 0C4.92487 0 0 4.67192 0 10.435C0 12.7413 0.788659 14.8728 2.12409 16.6C2.2097 16.7505 2.31799 16.8947 2.45045 17.029L2.68424 17.266C2.86849 17.4677 3.06076 17.6626 3.26058 17.8503L8.15232 22.8094C9.71872 24.3973 12.2813 24.3973 13.8477 22.8094L18.74 17.8498C18.9394 17.6624 19.1313 17.4679 19.3153 17.2666L19.5496 17.029C19.6821 16.8947 19.7904 16.7504 19.8761 16.5998Z" fill="#DEDEDE"/>
<path d="M19.8761 16.5998L18.2938 15.3766L18.2074 15.4883L18.1376 15.611L19.8761 16.5998ZM2.12409 16.6L3.86242 15.611L3.79264 15.4884L3.70635 15.3768L2.12409 16.6ZM2.45045 17.029L1.0266 18.4335L1.02661 18.4335L2.45045 17.029ZM2.68424 17.266L4.1608 15.917L4.13497 15.8888L4.10809 15.8615L2.68424 17.266ZM3.26058 17.8503L4.68443 16.4458L4.65766 16.4186L4.62987 16.3925L3.26058 17.8503ZM8.15232 22.8094L6.72847 24.2139L8.15232 22.8094ZM13.8477 22.8094L15.2716 24.2139L15.2716 24.2139L13.8477 22.8094ZM18.74 17.8498L17.3706 16.3921L17.3428 16.4182L17.3161 16.4453L18.74 17.8498ZM19.3153 17.2666L17.8914 15.8621L17.8646 15.8893L17.8388 15.9175L19.3153 17.2666ZM19.5496 17.029L18.1257 15.6245L18.1257 15.6245L19.5496 17.029ZM20 10.435C20 12.2746 19.3733 13.9803 18.2938 15.3766L21.4584 17.8231C23.0495 15.7649 24 13.2078 24 10.435H20ZM11 2C16.0712 2 20 5.87455 20 10.435H24C24 3.46929 18.079 -2 11 -2V2ZM2 10.435C2 5.87455 5.92876 2 11 2V-2C3.92097 -2 -2 3.46929 -2 10.435H2ZM3.70635 15.3768C2.62679 13.9804 2 12.2747 2 10.435H-2C-2 13.2079 -1.04947 15.7651 0.541831 17.8233L3.70635 15.3768ZM3.87431 15.6245C3.86816 15.6183 3.86477 15.614 3.86329 15.6121C3.86181 15.6101 3.86172 15.6098 3.86242 15.611L0.385761 17.5891C0.558828 17.8933 0.773348 18.1768 1.0266 18.4335L3.87431 15.6245ZM4.10809 15.8615L3.8743 15.6245L1.02661 18.4335L1.26039 18.6705L4.10809 15.8615ZM4.62987 16.3925C4.46701 16.2396 4.31053 16.0809 4.1608 15.917L1.20768 18.615C1.42645 18.8545 1.65452 19.0856 1.89129 19.308L4.62987 16.3925ZM9.57617 21.4049L4.68443 16.4458L1.83673 19.2548L6.72847 24.2139L9.57617 21.4049ZM12.4239 21.4049C11.6407 22.1988 10.3594 22.1988 9.57617 21.4049L6.72847 24.2139C9.07808 26.5958 12.922 26.5958 15.2716 24.2139L12.4239 21.4049ZM17.3161 16.4453L12.4239 21.4049L15.2716 24.2139L20.1638 19.2543L17.3161 16.4453ZM17.8388 15.9175C17.6893 16.0811 17.5331 16.2394 17.3706 16.3921L20.1094 19.3074C20.3457 19.0854 20.5733 18.8547 20.7917 18.6157L17.8388 15.9175ZM18.1257 15.6245L17.8914 15.8621L20.7391 18.6711L20.9734 18.4335L18.1257 15.6245ZM18.1376 15.611C18.1383 15.6098 18.1382 15.6101 18.1368 15.6121C18.1353 15.614 18.1319 15.6183 18.1257 15.6245L20.9734 18.4335C21.2268 18.1767 21.4414 17.893 21.6145 17.5887L18.1376 15.611Z" fill="#DEDEDE" mask="url(#path-1-inside-1_300_664)"/>
</svg>
