<svg width="22" height="24" viewBox="0 0 22 24" fill="none" xmlns="http://www.w3.org/2000/svg">
<path fill-rule="evenodd" clip-rule="evenodd" d="M19.8761 16.5998C21.2114 14.8726 22 12.7412 22 10.435C22 4.67192 17.0751 0 11 0C4.92487 0 0 4.67192 0 10.435C0 12.7413 0.788659 14.8728 2.12409 16.6C2.2097 16.7505 2.31799 16.8947 2.45045 17.029L2.68424 17.266C2.86849 17.4677 3.06076 17.6626 3.26058 17.8503L8.15232 22.8094C9.71872 24.3973 12.2813 24.3973 13.8477 22.8094L18.74 17.8498C18.9394 17.6624 19.1313 17.4679 19.3153 17.2666L19.5496 17.029C19.6821 16.8947 19.7904 16.7504 19.8761 16.5998Z" fill="#44B664"/>
<circle cx="11" cy="11" r="4" fill="white"/>
</svg>
