<svg width="328" height="56" viewBox="0 0 328 56" fill="none" xmlns="http://www.w3.org/2000/svg">
<rect width="328" height="56" rx="8" fill="#FFF175"/>
<path fill-rule="evenodd" clip-rule="evenodd" d="M118.323 31.5367C119.074 30.2926 119.5 28.8711 119.5 27.3614C119.5 22.467 115.023 18.4993 109.5 18.4993C103.977 18.4993 99.5 22.467 99.5 27.3614C99.5 32.2559 103.977 36.2236 109.5 36.2236C110.673 36.2236 111.799 36.0446 112.844 35.7159L113.557 36.9891C113.939 37.6712 114.92 37.6712 115.302 36.9891L118.232 31.7555C118.272 31.684 118.302 31.6106 118.323 31.5367Z" fill="#363636"/>
<path d="M135.602 22.0774C135.586 26.468 134.523 30.1243 129.211 32.7805L128.117 31.2805C130.492 30.1008 131.906 28.7805 132.711 27.2024L128.508 27.593L128.258 25.8899L133.32 25.5774C133.461 24.9836 133.562 24.343 133.617 23.6711H129.008V22.0774H135.602ZM139.398 20.718V26.1711H141.414V27.8118H139.398V34.9055H137.398V20.718H139.398ZM154.977 28.2649V29.8274H141.977V28.2649H147.477V27.218H143.602V21.0305H153.461V22.5774H145.602V23.3743H153.133V24.843H145.602V25.7024H153.586V27.218H149.477V28.2649H154.977ZM153.383 30.7024V34.9368H151.367V32.2649H143.445V30.7024H153.383ZM171.508 20.7336V31.1243H169.523V27.7493H166.273C165.586 28.4758 164.594 28.9211 163.492 28.9211C161.336 28.9211 159.695 27.3586 159.711 25.2493C159.695 23.1086 161.336 21.5618 163.492 21.5461C164.594 21.554 165.578 21.9915 166.273 22.718H169.523V20.7336H171.508ZM171.852 33.093V34.6868H162.07V30.0774H164.07V33.093H171.852ZM163.492 23.3274C162.383 23.3274 161.586 24.0461 161.602 25.2493C161.586 26.4368 162.383 27.1555 163.492 27.1555C164.539 27.1555 165.352 26.4368 165.352 25.2493C165.352 24.0461 164.539 23.3274 163.492 23.3274ZM167.133 24.3118C167.203 24.6086 167.242 24.9211 167.242 25.2493C167.242 25.5618 167.203 25.8665 167.133 26.1555H169.523V24.3118H167.133ZM186.352 27.4368V28.9993H173.352V27.4368H178.883V26.218H174.93V21.343H184.789V22.8899H176.914V24.6555H184.867V26.218H180.836V27.4368H186.352ZM179.82 29.718C182.898 29.718 184.758 30.6555 184.773 32.343C184.758 33.9993 182.898 34.9524 179.82 34.9524C176.711 34.9524 174.836 33.9993 174.836 32.343C174.836 30.6555 176.711 29.718 179.82 29.718ZM179.82 31.2336C177.852 31.2336 176.852 31.6086 176.867 32.343C176.852 33.093 177.852 33.4368 179.82 33.4368C181.742 33.4368 182.758 33.093 182.773 32.343C182.758 31.6086 181.742 31.2336 179.82 31.2336ZM200.195 31.718V33.3586H187.18V31.718H192.664V29.5774H188.68V24.7961H196.727V23.2336H188.664V21.6399H198.695V26.3586H190.68V27.9524H199.023V29.5774H194.648V31.718H200.195ZM212.383 22.0305V23.7336C212.383 25.6868 212.383 27.6243 211.867 30.5618L209.852 30.3899C210.383 27.6555 210.383 25.6243 210.398 23.7336V23.6243H202.352V22.0305H212.383ZM213.977 31.4368V33.0774H201.008V31.4368H213.977ZM226.742 20.7336V30.9524H224.742V20.7336H226.742ZM227.117 33.093V34.6868H217.211V29.9211H219.227V33.093H227.117ZM218.945 21.6399C221.133 21.6399 222.836 23.1399 222.836 25.218C222.836 27.343 221.133 28.8274 218.945 28.8274C216.758 28.8274 215.055 27.343 215.055 25.218C215.055 23.1399 216.758 21.6399 218.945 21.6399ZM218.945 23.3743C217.836 23.3586 216.992 24.0618 217.008 25.218C216.992 26.4055 217.836 27.093 218.945 27.093C220.023 27.093 220.867 26.4055 220.867 25.218C220.867 24.0618 220.023 23.3586 218.945 23.3743Z" fill="#363636"/>
</svg>
