<svg width="48" height="48" viewBox="0 0 48 48" fill="none" xmlns="http://www.w3.org/2000/svg">
<circle cx="24" cy="24" r="23.5" fill="white" stroke="#DEDEDE"/>
<path d="M32.8 24C32.8 28.8601 28.8601 32.8 24 32.8M32.8 24C32.8 19.1399 28.8601 15.2 24 15.2M32.8 24H35M24 32.8C19.1399 32.8 15.2 28.8601 15.2 24M24 32.8V35M15.2 24C15.2 19.1399 19.1399 15.2 24 15.2M15.2 24H13M24 15.2V13M27.3 24C27.3 25.8225 25.8225 27.3 24 27.3C22.1775 27.3 20.7 25.8225 20.7 24C20.7 22.1775 22.1775 20.7 24 20.7C25.8225 20.7 27.3 22.1775 27.3 24Z" stroke="#AEAEAE" stroke-width="2" stroke-linecap="round" stroke-linejoin="round"/>
</svg>
