<svg width="25" height="24" viewBox="0 0 25 24" fill="none" xmlns="http://www.w3.org/2000/svg">
<path d="M12.5 16.8889C8.32749 16.8889 4.6169 17.5374 2.25454 20.4406C1.7461 21.0655 1.49188 21.3779 1.5002 21.8001C1.50662 22.1263 1.72722 22.5379 2.00364 22.7393C2.36141 23 2.85721 23 3.8488 23H21.1512C22.1428 23 22.6386 23 22.9964 22.7393C23.2728 22.5379 23.4934 22.1263 23.4998 21.8001C23.5081 21.3779 23.2539 21.0655 22.7455 20.4406C20.3831 17.5374 16.6725 16.8889 12.5 16.8889Z" stroke="#DEDEDE" stroke-width="2" stroke-linecap="round" stroke-linejoin="round"/>
<path d="M12.5 12C15.7712 12 18.423 9.53757 18.423 6.5C18.423 3.46243 15.7712 1 12.5 1C9.22883 1 6.57702 3.46243 6.57702 6.5C6.57702 9.53757 9.22883 12 12.5 12Z" stroke="#DEDEDE" stroke-width="2" stroke-linecap="round" stroke-linejoin="round"/>
</svg>
