<svg width="24" height="24" viewBox="0 0 24 24" fill="none" xmlns="http://www.w3.org/2000/svg">
<path d="M15.8991 18.875C15.8991 21.1532 14.1534 23 12 23C9.84661 23 8.10094 21.1532 8.10094 18.875M19.7981 8.15C19.7981 6.2537 18.9765 4.43507 17.5141 3.09419C16.0517 1.7533 14.0682 1 12 1C9.93181 1 7.94833 1.7533 6.4859 3.09419C5.02347 4.43507 4.20189 6.2537 4.20189 8.15C4.20189 11.2875 3.46644 13.582 2.54877 15.2239C1.50288 17.0952 0.979938 18.0309 1.00059 18.2544C1.02421 18.5101 1.06772 18.5908 1.26374 18.7424C1.43508 18.875 2.29591 18.875 4.01758 18.875H19.9824C21.7041 18.875 22.5649 18.875 22.7363 18.7424C22.9323 18.5908 22.9758 18.5101 22.9994 18.2544C23.0201 18.0309 22.4971 17.0952 21.4512 15.2239C20.5336 13.5821 19.7981 11.2875 19.7981 8.15Z" stroke="#44B664" stroke-width="2" stroke-linecap="round" stroke-linejoin="round"/>
</svg>
