<svg width="25" height="24" viewBox="0 0 25 24" fill="none" xmlns="http://www.w3.org/2000/svg">
<path d="M23.5 8.33333H1.5M17.3889 1V4.66667M7.61111 1V4.66667M7.36667 23H17.6333C19.6869 23 20.7136 23 21.498 22.6004C22.1879 22.2488 22.7488 21.6879 23.1004 20.998C23.5 20.2136 23.5 19.1869 23.5 17.1333V8.08889C23.5 6.03536 23.5 5.0086 23.1004 4.22426C22.7488 3.53433 22.1879 2.9734 21.498 2.62186C20.7136 2.22222 19.6869 2.22222 17.6333 2.22222H7.36667C5.31314 2.22222 4.28638 2.22222 3.50203 2.62186C2.81211 2.9734 2.25118 3.53433 1.89964 4.22426C1.5 5.0086 1.5 6.03536 1.5 8.08889V17.1333C1.5 19.1869 1.5 20.2136 1.89964 20.998C2.25118 21.6879 2.81211 22.2488 3.50203 22.6004C4.28638 23 5.31314 23 7.36667 23Z" stroke="#DEDEDE" stroke-width="2" stroke-linecap="round" stroke-linejoin="round"/>
</svg>
