<svg width="48" height="48" viewBox="0 0 48 48" fill="none" xmlns="http://www.w3.org/2000/svg">
<circle cx="24" cy="24" r="23.5" fill="white" stroke="#DEDEDE"/>
<path d="M20.9689 25.359L27.04 28.941M27.0311 19.059L20.9689 22.641M32 17.7C32 19.1912 30.8061 20.4 29.3333 20.4C27.8606 20.4 26.6667 19.1912 26.6667 17.7C26.6667 16.2088 27.8606 15 29.3333 15C30.8061 15 32 16.2088 32 17.7ZM21.3333 24C21.3333 25.4912 20.1394 26.7 18.6667 26.7C17.1939 26.7 16 25.4912 16 24C16 22.5088 17.1939 21.3 18.6667 21.3C20.1394 21.3 21.3333 22.5088 21.3333 24ZM32 30.3C32 31.7912 30.8061 33 29.3333 33C27.8606 33 26.6667 31.7912 26.6667 30.3C26.6667 28.8088 27.8606 27.6 29.3333 27.6C30.8061 27.6 32 28.8088 32 30.3Z" stroke="#AEAEAE" stroke-width="2" stroke-linecap="round" stroke-linejoin="round"/>
</svg>
