<svg width="14" height="15" viewBox="0 0 14 15" fill="none" xmlns="http://www.w3.org/2000/svg">
<mask id="path-1-inside-1_497_2740" fill="white">
<path fill-rule="evenodd" clip-rule="evenodd" d="M11.9276 11.6482C13.2074 10.414 14 8.70245 14 6.81079C14 3.04929 10.866 0 7 0C3.13401 0 0 3.04929 0 6.81079C0 8.7078 0.797112 10.4237 2.08323 11.6586L4.11738 13.7737C5.69112 15.41 8.30969 15.41 9.88343 13.7737L11.9276 11.6482Z"/>
</mask>
<path d="M11.9276 11.6482L10.5393 10.2085L10.5122 10.2347L10.4861 10.2618L11.9276 11.6482ZM2.08323 11.6586L3.52474 10.2722L3.49715 10.2435L3.46845 10.216L2.08323 11.6586ZM4.11738 13.7737L5.55889 12.3873L4.11738 13.7737ZM9.88343 13.7737L11.3249 15.16L9.88343 13.7737ZM12 6.81079C12 8.12904 11.4506 9.32968 10.5393 10.2085L13.316 13.0878C14.9641 11.4983 16 9.27587 16 6.81079H12ZM7 2C9.81344 2 12 4.20517 12 6.81079H16C16 1.89341 11.9185 -2 7 -2V2ZM2 6.81079C2 4.20517 4.18656 2 7 2V-2C2.08145 -2 -2 1.89341 -2 6.81079H2ZM3.46845 10.216C2.55249 9.33647 2 8.13272 2 6.81079H-2C-2 9.28288 -0.958266 11.5109 0.698002 13.1012L3.46845 10.216ZM5.55889 12.3873L3.52474 10.2722L0.641714 13.045L2.67587 15.16L5.55889 12.3873ZM8.44192 12.3873C7.65505 13.2054 6.34576 13.2054 5.55889 12.3873L2.67587 15.16C5.03648 17.6145 8.96433 17.6145 11.3249 15.16L8.44192 12.3873ZM10.4861 10.2618L8.44192 12.3873L11.3249 15.16L13.3691 13.0345L10.4861 10.2618Z" fill="#AEAEAE" mask="url(#path-1-inside-1_497_2740)"/>
</svg>
