<svg width="48" height="48" viewBox="0 0 48 48" fill="none" xmlns="http://www.w3.org/2000/svg">
<circle cx="24" cy="24" r="23.5" fill="white" stroke="#DEDEDE"/>
<path d="M26.7 21.66V17.7C26.7 16.2088 25.4912 15 24 15C22.9401 15 22.0229 15.6107 21.581 16.4993M24 30.3V33M24 30.3C20.5206 30.3 17.7 27.4794 17.7 24V22.2M24 30.3C27.4794 30.3 30.3 27.4794 30.3 24V22.2M20.4 33H27.6M15 15L33 33M24 26.7C22.5088 26.7 21.3 25.4912 21.3 24V21.3L25.9103 25.908C25.4216 26.3973 24.7462 26.7 24 26.7Z" stroke="#AEAEAE" stroke-width="2" stroke-linecap="round" stroke-linejoin="round"/>
</svg>
